<svg width="24" height="24" viewBox="0 0 24 24" fill="none" xmlns="http://www.w3.org/2000/svg">
<path d="M12.0002 8.88757C10.2752 8.88757 8.8877 10.2751 8.8877 12.0001C8.8877 13.7251 10.2752 15.1126 12.0002 15.1126C13.7252 15.1126 15.1127 13.7251 15.1127 12.0001C15.1127 10.2751 13.7252 8.88757 12.0002 8.88757ZM12.0002 13.4251C11.2127 13.4251 10.5752 12.7876 10.5752 12.0001C10.5752 11.2126 11.2127 10.5751 12.0002 10.5751C12.7877 10.5751 13.4252 11.2126 13.4252 12.0001C13.4252 12.7876 12.7877 13.4251 12.0002 13.4251Z" fill="#111928"/>
<path d="M22.95 10.6875C20.8125 7.50002 17.85 4.27502 12 4.27502C6.15 4.27502 3.1875 7.50002 1.05 10.6875C0.525 11.475 0.525 12.525 1.05 13.3125C3.1875 16.4625 6.15 19.725 12 19.725C17.85 19.725 20.8125 16.4625 22.95 13.3125C23.475 12.4875 23.475 11.475 22.95 10.6875ZM21.5625 12.375C18.825 16.3875 16.0875 18.0375 12 18.0375C7.9125 18.0375 5.175 16.3875 2.4375 12.375C2.2875 12.15 2.2875 11.85 2.4375 11.625C5.175 7.61252 7.9125 5.96252 12 5.96252C16.0875 5.96252 18.825 7.61252 21.5625 11.625C21.675 11.85 21.675 12.15 21.5625 12.375Z" fill="#111928"/>
</svg>