<svg width="24" height="24" viewBox="0 0 24 24" fill="none" xmlns="http://www.w3.org/2000/svg">
<path d="M23.2499 12.375C23.3624 12.15 23.3624 11.85 23.2499 11.625C23.0999 11.325 19.4249 4.275 11.9999 4.275C10.3499 4.275 8.7374 4.65 7.2374 5.325C7.0499 5.4 6.8999 5.475 6.7499 5.5875L4.0874 2.925C3.7499 2.5875 3.2249 2.5875 2.8874 2.925C2.5499 3.2625 2.5499 3.7875 2.8874 4.125L19.8749 21.075C20.0249 21.225 20.2499 21.3375 20.4749 21.3375C20.6999 21.3375 20.9249 21.2625 21.0749 21.075C21.4124 20.7375 21.4124 20.2125 21.0749 19.875L18.7124 17.5125C18.7499 17.475 18.7499 17.475 18.7874 17.4375C21.7499 15.3375 23.1749 12.4875 23.2499 12.375ZM13.4624 12.2625L11.7374 10.5375C11.8124 10.5375 11.9249 10.5 11.9999 10.5C12.8249 10.5 13.4999 11.175 13.4999 12C13.4999 12.075 13.4624 12.1875 13.4624 12.2625ZM14.7749 13.575C14.8874 13.3875 14.9624 13.1625 15.0374 12.975C15.1499 12.675 15.1874 12.3375 15.1874 12.0375C15.1874 10.275 13.7624 8.85 11.9999 8.85C11.7374 8.85 11.4374 8.8875 11.1749 8.9625L11.0249 9C10.7999 9.075 10.6124 9.15 10.3874 9.2625L7.9499 6.8625C9.2249 6.2625 10.5374 5.9625 11.9249 5.9625C17.3999 5.9625 20.6249 10.65 21.4499 12.0375C20.9624 12.825 19.7249 14.7 17.7374 16.125C17.6249 16.2 17.5124 16.275 17.4374 16.35L14.7749 13.575Z" fill="#111928"/>
<path d="M11.9999 18.075C6.5249 18.075 3.2999 13.3875 2.4749 12C2.8499 11.3625 3.7124 10.0875 5.0249 8.85005L3.8624 7.61255C1.8374 9.52505 0.787402 11.55 0.749902 11.625C0.637402 11.85 0.637402 12.15 0.749902 12.375C0.899902 12.675 4.5749 19.725 11.9999 19.725C13.0124 19.725 14.0249 19.575 14.9999 19.3125L14.5499 17.7C13.7249 17.925 12.8624 18.075 11.9999 18.075Z" fill="#111928"/>
</svg>